<svg width="19" height="15" viewBox="0 0 19 15" fill="none" xmlns="http://www.w3.org/2000/svg">
<path d="M2.78468 14.4694C2.01567 14.4694 1.4377 14.2784 1.05074 13.8964C0.668691 13.5192 0.477664 12.951 0.477664 12.1918V4.49931C0.477664 3.745 0.668691 3.17927 1.05074 2.80212C1.4377 2.42006 2.01567 2.22904 2.78468 2.22904H4.83454C5.12353 2.22904 5.3366 2.19475 5.47375 2.12618C5.61089 2.0527 5.76029 1.92535 5.92192 1.74412L6.5097 1.08288C6.69583 0.882053 6.89665 0.727763 7.11217 0.620004C7.33258 0.512245 7.63137 0.458366 8.00852 0.458366H10.94C11.3172 0.458366 11.616 0.512245 11.8364 0.620004C12.0568 0.727763 12.2576 0.882053 12.4389 1.08288L13.0266 1.74412C13.1393 1.86658 13.2397 1.96454 13.3279 2.03801C13.4209 2.10658 13.5263 2.15556 13.6438 2.18495C13.7614 2.21434 13.9181 2.22904 14.114 2.22904H16.2153C16.9794 2.22904 17.555 2.42006 17.9419 2.80212C18.3289 3.17927 18.5223 3.745 18.5223 4.49931V12.1918C18.5223 12.951 18.3289 13.5192 17.9419 13.8964C17.555 14.2784 16.9794 14.4694 16.2153 14.4694H2.78468ZM2.79937 13.2865H16.1933C16.5557 13.2865 16.8374 13.191 17.0382 13C17.239 12.8041 17.3394 12.5151 17.3394 12.133V4.56544C17.3394 4.18339 17.239 3.89685 17.0382 3.70582C16.8374 3.50989 16.5557 3.41193 16.1933 3.41193H13.8201C13.4871 3.41193 13.2177 3.3752 13.012 3.30172C12.8111 3.22335 12.6177 3.08131 12.4315 2.87559L11.8584 2.22904C11.6478 1.99393 11.4617 1.83719 11.3001 1.75882C11.1384 1.68045 10.896 1.64126 10.5727 1.64126H8.37588C8.05261 1.64126 7.81015 1.68045 7.64851 1.75882C7.48687 1.83719 7.30074 1.99393 7.09012 2.22904L6.51705 2.87559C6.33092 3.08131 6.13499 3.22335 5.92927 3.30172C5.72845 3.3752 5.4615 3.41193 5.12843 3.41193H2.79937C2.43691 3.41193 2.15527 3.50989 1.95445 3.70582C1.75852 3.89685 1.66056 4.18339 1.66056 4.56544V12.133C1.66056 12.5151 1.75852 12.8041 1.95445 13C2.15527 13.191 2.43691 13.2865 2.79937 13.2865ZM9.5 12.2285C8.94161 12.2285 8.41996 12.1257 7.93505 11.92C7.45014 11.7142 7.024 11.4277 6.65664 11.0603C6.29418 10.693 6.00764 10.2668 5.79702 9.78194C5.5913 9.29702 5.48844 8.77292 5.48844 8.20964C5.48844 7.65125 5.5913 7.1296 5.79702 6.64469C6.00764 6.15978 6.29418 5.73364 6.65664 5.36628C7.024 4.99892 7.45014 4.71238 7.93505 4.50666C8.41996 4.30094 8.94161 4.19808 9.5 4.19808C10.2396 4.19808 10.9131 4.37686 11.5205 4.73442C12.1278 5.09199 12.6103 5.57445 12.9679 6.18182C13.3254 6.78918 13.5042 7.46513 13.5042 8.20964C13.5042 8.77292 13.4014 9.29702 13.1956 9.78194C12.9899 10.2668 12.7034 10.693 12.336 11.0603C11.9687 11.4277 11.5425 11.7142 11.0576 11.92C10.5727 12.1257 10.0535 12.2285 9.5 12.2285ZM9.5 11.1118C10.0339 11.1118 10.5188 10.982 10.9547 10.7224C11.3956 10.4628 11.7458 10.115 12.0054 9.67908C12.265 9.23824 12.3948 8.74843 12.3948 8.20964C12.3948 7.67574 12.265 7.19083 12.0054 6.7549C11.7458 6.31407 11.3956 5.96385 10.9547 5.70425C10.5188 5.43975 10.0339 5.3075 9.5 5.3075C8.9661 5.3075 8.47874 5.43975 8.03791 5.70425C7.60198 5.96385 7.25176 6.31407 6.98726 6.7549C6.72766 7.19083 6.59786 7.67574 6.59786 8.20964C6.59786 8.74843 6.72766 9.23824 6.98726 9.67908C7.25176 10.115 7.60198 10.4628 8.03791 10.7224C8.47874 10.982 8.9661 11.1118 9.5 11.1118ZM13.8054 5.50588C13.8054 5.26097 13.8961 5.0479 14.0773 4.86667C14.2585 4.68544 14.4765 4.59483 14.7312 4.59483C14.9761 4.59483 15.1892 4.68544 15.3704 4.86667C15.5516 5.0479 15.6422 5.26097 15.6422 5.50588C15.6422 5.76058 15.5516 5.9761 15.3704 6.15243C15.1892 6.32876 14.9761 6.41693 14.7312 6.41693C14.4765 6.42183 14.2585 6.33611 14.0773 6.15978C13.8961 5.98344 13.8054 5.76548 13.8054 5.50588Z" fill="#F75932"/>
</svg>
