<svg width="20" height="15" viewBox="0 0 20 15" fill="none" xmlns="http://www.w3.org/2000/svg">
<path d="M3.71816 11.8024H16.2818L16.0614 12.6841C15.9194 13.262 15.6843 13.6955 15.3561 13.9845C15.0279 14.2735 14.5601 14.418 13.9528 14.418H6.03987C5.4325 14.418 4.96473 14.2711 4.63656 13.9772C4.31328 13.6882 4.08062 13.2572 3.93858 12.6841L3.71816 11.8024ZM3.47571 10.7958L2.0577 5.02831L2.76303 4.84463L6.08395 7.2692C6.20641 7.35737 6.30682 7.39165 6.38519 7.37206C6.46846 7.34757 6.54193 7.28879 6.6056 7.19573L9.82367 2.33924L10.1763 2.35394L13.365 7.17369C13.4336 7.27655 13.512 7.34022 13.6001 7.36471C13.6932 7.38431 13.8009 7.35002 13.9234 7.26185L17.3104 4.7932L17.9129 5.13852L16.5316 10.7958H3.47571ZM2.32955 6.60795C2.01117 6.60795 1.71728 6.52958 1.44788 6.37284C1.18339 6.21121 0.970317 5.99814 0.808679 5.73364C0.651939 5.46914 0.573569 5.17281 0.573569 4.84463C0.573569 4.52625 0.651939 4.23482 0.808679 3.97032C0.965419 3.70582 1.17604 3.4952 1.44054 3.33846C1.70993 3.17682 2.00627 3.096 2.32955 3.096C2.65282 3.096 2.94671 3.17682 3.21121 3.33846C3.47571 3.4952 3.68632 3.70582 3.84306 3.97032C3.9998 4.23482 4.07817 4.52625 4.07817 4.84463C4.07817 5.17281 3.9998 5.46914 3.84306 5.73364C3.68632 5.99814 3.47571 6.21121 3.21121 6.37284C2.94671 6.52958 2.65282 6.60795 2.32955 6.60795ZM10 3.55153C9.67672 3.55153 9.38039 3.47316 9.11099 3.31642C8.84649 3.15968 8.63587 2.94906 8.47913 2.68456C8.32239 2.41516 8.24402 2.11883 8.24402 1.79555C8.24402 1.47228 8.32239 1.17839 8.47913 0.913891C8.63587 0.649393 8.84649 0.438774 9.11099 0.282034C9.38039 0.125294 9.67672 0.046924 10 0.046924C10.3184 0.046924 10.6098 0.127743 10.8743 0.289381C11.1437 0.446121 11.3568 0.65674 11.5135 0.921238C11.6703 1.18574 11.7486 1.47717 11.7486 1.79555C11.7486 2.11883 11.6703 2.41516 11.5135 2.68456C11.3568 2.94906 11.1437 3.15968 10.8743 3.31642C10.6098 3.47316 10.3184 3.55153 10 3.55153ZM17.6631 6.60795C17.3398 6.60795 17.0459 6.52958 16.7814 6.37284C16.5169 6.21121 16.3063 5.99814 16.1496 5.73364C15.9928 5.46914 15.9145 5.17281 15.9145 4.84463C15.9145 4.52625 15.9928 4.23482 16.1496 3.97032C16.3063 3.70582 16.5169 3.4952 16.7814 3.33846C17.0459 3.17682 17.3398 3.096 17.6631 3.096C17.9864 3.096 18.2803 3.17682 18.5448 3.33846C18.8142 3.4952 19.0272 3.70582 19.184 3.97032C19.3407 4.23482 19.4191 4.52625 19.4191 4.84463C19.4191 5.17281 19.3383 5.46914 19.1766 5.73364C19.0199 5.99814 18.8068 6.21121 18.5374 6.37284C18.2729 6.52958 17.9815 6.60795 17.6631 6.60795Z" fill="#F75932"/>
</svg>
