<svg width="15" height="15" viewBox="0 0 15 15" fill="none" xmlns="http://www.w3.org/2000/svg">
<path d="M3.04026 14.4694C2.27126 14.4694 1.69328 14.2784 1.30633 13.8964C0.924276 13.5192 0.733249 12.951 0.733249 12.1918V3.22091C0.733249 2.4617 0.924276 1.89351 1.30633 1.51636C1.69328 1.13431 2.27126 0.94328 3.04026 0.94328H11.9524C12.7214 0.94328 13.2969 1.13431 13.679 1.51636C14.0659 1.89351 14.2594 2.4617 14.2594 3.22091V12.1918C14.2594 12.951 14.0659 13.5192 13.679 13.8964C13.2969 14.2784 12.7214 14.4694 11.9524 14.4694H3.04026ZM3.05496 13.2865H11.9377C12.3002 13.2865 12.5793 13.191 12.7753 13C12.9761 12.8041 13.0765 12.5151 13.0765 12.133V3.27968C13.0765 2.89763 12.9761 2.61109 12.7753 2.42006C12.5793 2.22414 12.3002 2.12618 11.9377 2.12618H3.05496C2.6876 2.12618 2.40596 2.22414 2.21003 2.42006C2.01411 2.61109 1.91614 2.89763 1.91614 3.27968V12.133C1.91614 12.5151 2.01411 12.8041 2.21003 13C2.40596 13.191 2.6876 13.2865 3.05496 13.2865ZM4.20112 5.59404C3.87294 5.58915 3.5913 5.47159 3.35619 5.24138C3.12108 5.01117 3.00353 4.72708 3.00353 4.38911C3.00353 4.06093 3.12108 3.78174 3.35619 3.55153C3.5913 3.32132 3.87294 3.20621 4.20112 3.20621C4.52439 3.20621 4.80359 3.32132 5.0387 3.55153C5.27381 3.78174 5.39136 4.06093 5.39136 4.38911C5.39136 4.72708 5.27381 5.01362 5.0387 5.24873C4.80359 5.48384 4.52439 5.59894 4.20112 5.59404ZM10.8062 5.59404C10.4781 5.58915 10.194 5.47159 9.95396 5.24138C9.71885 5.01117 9.60129 4.72708 9.60129 4.38911C9.60129 4.06093 9.71885 3.78174 9.95396 3.55153C10.194 3.32132 10.4781 3.20621 10.8062 3.20621C11.1295 3.20621 11.4087 3.32132 11.6438 3.55153C11.8789 3.78174 11.9965 4.06093 11.9965 4.38911C11.9965 4.72708 11.8789 5.01362 11.6438 5.24873C11.4087 5.48384 11.1295 5.59894 10.8062 5.59404ZM7.5 8.90027C7.17183 8.90027 6.89018 8.78272 6.65507 8.54761C6.42486 8.3125 6.30976 8.02841 6.30976 7.69534C6.30976 7.37206 6.42486 7.09532 6.65507 6.86511C6.89018 6.63 7.17183 6.51244 7.5 6.51244C7.82328 6.51244 8.10247 6.63 8.33758 6.86511C8.57269 7.09532 8.69024 7.37206 8.69024 7.69534C8.69024 8.02841 8.57269 8.3125 8.33758 8.54761C8.10247 8.78272 7.82328 8.90027 7.5 8.90027ZM4.20112 12.2065C3.87294 12.2065 3.5913 12.0889 3.35619 11.8538C3.12598 11.6187 3.01087 11.3371 3.01087 11.0089C3.01087 10.6807 3.12598 10.4015 3.35619 10.1713C3.5913 9.93623 3.87294 9.81867 4.20112 9.81867C4.52439 9.81867 4.80359 9.93623 5.0387 10.1713C5.27381 10.4015 5.39136 10.6807 5.39136 11.0089C5.39136 11.3371 5.27381 11.6187 5.0387 11.8538C4.80359 12.0889 4.52439 12.2065 4.20112 12.2065ZM10.8062 12.2065C10.4781 12.2065 10.1964 12.0889 9.96131 11.8538C9.73109 11.6187 9.61599 11.3371 9.61599 11.0089C9.61599 10.6807 9.73109 10.4015 9.96131 10.1713C10.1964 9.93623 10.4781 9.81867 10.8062 9.81867C11.1295 9.81867 11.4087 9.93623 11.6438 10.1713C11.8789 10.4015 11.9965 10.6807 11.9965 11.0089C11.9965 11.3371 11.8789 11.6187 11.6438 11.8538C11.4087 12.0889 11.1295 12.2065 10.8062 12.2065Z" fill="#F75932"/>
</svg>
