<svg width="17" height="18" viewBox="0 0 17 18" fill="none" xmlns="http://www.w3.org/2000/svg">
<path d="M8.5 17.4084C7.37392 17.4084 6.3125 17.1929 5.31573 16.7619C4.32435 16.3308 3.44882 15.7355 2.68912 14.9758C1.92942 14.2161 1.33405 13.3405 0.903018 12.3491C0.471983 11.3524 0.256466 10.2909 0.256466 9.16487C0.256466 8.03879 0.471983 6.98006 0.903018 5.98869C1.33405 4.99192 1.92672 4.11369 2.68104 3.35399C3.44073 2.59429 4.31627 1.99892 5.30765 1.56789C6.30442 1.13685 7.36584 0.921337 8.49192 0.921337C9.618 0.921337 10.6794 1.13685 11.6762 1.56789C12.673 1.99892 13.5512 2.59429 14.3109 3.35399C15.0706 4.11369 15.6659 4.99192 16.097 5.98869C16.528 6.98006 16.7435 8.03879 16.7435 9.16487C16.7435 10.2909 16.528 11.3524 16.097 12.3491C15.6659 13.3405 15.0706 14.2161 14.3109 14.9758C13.5512 15.7355 12.673 16.3308 11.6762 16.7619C10.6848 17.1929 9.62608 17.4084 8.5 17.4084ZM8.5 13.9251C8.61315 13.9251 8.70744 13.8901 8.78287 13.82C8.8583 13.7446 8.89601 13.6476 8.89601 13.5291V12.9472C9.54257 12.8825 10.0867 12.6697 10.5286 12.3087C10.9704 11.9423 11.1913 11.444 11.1913 10.8136C11.1913 10.2478 11.0081 9.79256 10.6417 9.44774C10.2753 9.10291 9.73114 8.86584 9.00916 8.73653L8.89601 8.71228V6.39278C9.19235 6.44666 9.44019 6.55981 9.63955 6.73222C9.84429 6.90463 9.98976 7.13093 10.076 7.4111C10.1676 7.68588 10.3373 7.82328 10.5851 7.82328C10.7306 7.82328 10.8491 7.77748 10.9407 7.68588C11.0323 7.59429 11.0781 7.47575 11.0781 7.33028C11.0781 7.28718 11.0727 7.24407 11.062 7.20097C11.0566 7.15787 11.0485 7.11476 11.0377 7.07166C10.9246 6.62446 10.6713 6.25539 10.278 5.96444C9.89009 5.6681 9.42942 5.4903 8.89601 5.43103V4.85722C8.89601 4.73869 8.8583 4.6444 8.78287 4.57435C8.70744 4.49892 8.61315 4.46121 8.5 4.46121C8.38685 4.46121 8.29257 4.49892 8.21713 4.57435C8.1417 4.6444 8.10399 4.73869 8.10399 4.85722V5.43103C7.4736 5.50108 6.95366 5.72198 6.54418 6.09375C6.14009 6.46013 5.93804 6.92888 5.93804 7.5C5.93804 8.02802 6.11584 8.45636 6.47144 8.78502C6.82705 9.1083 7.35237 9.35345 8.04741 9.52047L8.10399 9.53664V11.9935C7.73222 11.9397 7.43588 11.8157 7.21498 11.6218C6.99946 11.4278 6.85668 11.1934 6.78664 10.9186C6.73815 10.7732 6.6708 10.6681 6.58459 10.6034C6.49838 10.5334 6.39332 10.4984 6.2694 10.4984C6.12931 10.4984 6.01347 10.5442 5.92188 10.6358C5.83028 10.7274 5.78448 10.8459 5.78448 10.9914C5.78448 11.0345 5.78718 11.0776 5.79257 11.1207C5.80334 11.1638 5.81412 11.2069 5.82489 11.25C5.94343 11.7349 6.21282 12.1228 6.63308 12.4138C7.05334 12.7047 7.54364 12.8772 8.10399 12.931V13.5291C8.10399 13.6476 8.1417 13.7446 8.21713 13.82C8.29257 13.8901 8.38685 13.9251 8.5 13.9251ZM8.10399 8.50216L8.04741 8.48599C7.67565 8.37285 7.40356 8.23276 7.23114 8.06573C7.05873 7.89871 6.97252 7.69127 6.97252 7.44343C6.97252 7.19019 7.0722 6.9666 7.27155 6.77263C7.47629 6.57866 7.75377 6.45205 8.10399 6.39278V8.50216ZM8.89601 9.7306L9.07382 9.7791C9.47791 9.88685 9.75808 10.0296 9.91433 10.2074C10.076 10.3852 10.1568 10.6061 10.1568 10.8702C10.1568 11.1611 10.0517 11.4089 9.8416 11.6137C9.63685 11.8184 9.32166 11.945 8.89601 11.9935V9.7306Z" fill="#F75932"/>
</svg>
