<svg width="24" height="23" viewBox="0 0 24 23" fill="none" xmlns="http://www.w3.org/2000/svg">
<path d="M11.8388 22.9109C18.0851 22.9109 23.1479 17.8579 23.1479 11.6249C23.1479 5.39194 18.0822 0.338287 11.8388 0.338287C5.59529 0.338287 0.52956 5.39194 0.52956 11.6284C0.52956 17.8649 5.59012 22.9145 11.8388 22.9145" fill="white"/>
<path d="M12.6393 14.1749C13.7267 12.823 14.8676 11.3547 15.9631 9.99287L12.1269 9.21777C11.8192 9.15342 11.5961 9.21777 11.392 9.46171C11.0699 9.84487 10.7312 10.214 10.3914 10.5814C10.3183 10.6526 10.2668 10.7436 10.2432 10.8437C10.2195 10.9438 10.2247 11.0487 10.2579 11.1459C10.4506 11.8075 10.6386 12.5334 10.833 13.1933C10.8458 13.2481 10.8782 13.2961 10.9239 13.3278L12.6393 14.1749Z" fill="#F75932"/>
<path d="M5.36748 7.43993L9.24283 6.17228C9.29013 6.15382 9.34155 6.14912 9.39132 6.15873C9.44109 6.16834 9.48725 6.19187 9.52461 6.22668L13.1573 9.14281L5.36748 7.43993Z" fill="#F75932"/>
<path d="M13.7001 9.26802C13.2745 8.92814 12.8915 8.55902 12.5091 8.2519C11.5342 7.47193 10.5606 6.6902 9.58836 5.90672C9.55308 5.87371 9.50911 5.85187 9.46183 5.84387C9.41454 5.83587 9.36599 5.84206 9.32211 5.86167C8.95177 5.9892 8.5774 6.10619 8.20591 6.23196C8.12195 6.26063 8.06272 6.2694 8.00004 6.18107L6.20527 3.64108L7.7033 4.30153C9.23681 4.97738 10.768 5.6542 12.2969 6.332C12.3873 6.37581 12.4604 6.4494 12.5045 6.54083L13.7001 9.26802Z" fill="#F75932"/>
<path d="M12.3316 14.3591C12.4576 14.4217 12.5076 14.479 12.484 14.6346L12.3333 16.0157L7.45911 15.4682L8.79556 13.997C9.37062 13.3687 9.85942 13.1827 10.4995 13.46L12.3316 14.3591Z" fill="#F75932"/>
<path d="M12.3107 16.3203L9.94716 19.1002L7.47438 15.7915L12.3107 16.3203Z" fill="#F75932"/>
<path d="M16.2094 10.1155C16.5591 10.5221 16.9081 10.9825 17.2445 11.3908C17.2744 11.4289 17.2964 11.4727 17.3094 11.5196C17.3223 11.5665 17.3259 11.6156 17.3199 11.664C17.1842 12.2823 16.9553 12.8608 16.5481 13.3516C16.2646 13.6944 15.9127 13.9243 15.4394 13.984C15.3819 13.7658 15.321 13.5441 15.264 13.3218C15.149 12.8632 15.0288 12.4051 14.919 11.9442C14.9007 11.8747 14.9102 11.8006 14.9454 11.7382L16.2094 10.1155Z" fill="#F75932"/>
<path d="M11.6139 17.6415C11.68 17.5719 11.7289 17.5555 11.8209 17.6017L14.9941 19.3386L13.4414 19.5497C13.1154 19.5942 12.791 19.655 12.4638 19.6767C12.1953 19.7005 11.9249 19.6906 11.6587 19.6474C11.1734 19.555 10.6966 19.4187 10.1636 19.2888L11.6139 17.6415Z" fill="#F75932"/>
<path d="M17.7935 9.58073C17.8407 9.76559 17.8901 9.94986 17.9327 10.1365C17.9381 10.1751 17.9296 10.2144 17.9085 10.247C17.7427 10.5087 17.5594 10.7585 17.3599 10.9946L17.7935 9.58073Z" fill="#F75932"/>
</svg>
