<svg width="17" height="17" viewBox="0 0 17 17" fill="none" xmlns="http://www.w3.org/2000/svg">
<path d="M3.46718 15.8368C3.31534 15.7241 3.22228 15.5723 3.18799 15.3813C3.1586 15.1902 3.19044 14.9625 3.2835 14.698L4.81906 10.128L0.89567 7.30672C0.665458 7.14508 0.50627 6.97855 0.418103 6.80711C0.329937 6.63568 0.315243 6.45935 0.37402 6.27812C0.432798 6.10178 0.547904 5.96953 0.719338 5.88137C0.890772 5.7932 1.11853 5.75157 1.40263 5.75647L6.21503 5.78585L7.67712 1.19387C7.76528 0.924471 7.87549 0.721199 8.00774 0.584052C8.14489 0.446904 8.30652 0.378331 8.49265 0.378331C8.68368 0.378331 8.84532 0.446904 8.97757 0.584052C9.11471 0.721199 9.22737 0.924471 9.31554 1.19387L10.7776 5.78585L15.59 5.75647C15.8741 5.75157 16.1019 5.7932 16.2733 5.88137C16.4447 5.96953 16.5599 6.10178 16.6186 6.27812C16.6774 6.45935 16.6627 6.63568 16.5745 6.80711C16.4864 6.97855 16.3272 7.14508 16.097 7.30672L12.1736 10.128L13.7091 14.698C13.8022 14.9625 13.8316 15.1902 13.7973 15.3813C13.7679 15.5723 13.6773 15.7241 13.5255 15.8368C13.3736 15.9543 13.2022 15.9935 13.0112 15.9543C12.8201 15.9201 12.612 15.8221 12.3867 15.6605L8.49265 12.8024L4.606 15.6605C4.38068 15.8221 4.17251 15.9201 3.98149 15.9543C3.79046 15.9935 3.61902 15.9543 3.46718 15.8368Z" fill="#F75932"/>
</svg>
